<?xml version="1.0" encoding="UTF-8" standalone="no"?>
<!-- Created with Inkscape (http://www.inkscape.org/) -->

<svg
   width="32.620289mm"
   height="28.079132mm"
   viewBox="0 0 32.620289 28.079132"
   version="1.1"
   id="svg1"
   xml:space="preserve"
   xmlns:inkscape="http://www.inkscape.org/namespaces/inkscape"
   xmlns:sodipodi="http://sodipodi.sourceforge.net/DTD/sodipodi-0.dtd"
   xmlns="http://www.w3.org/2000/svg"
   xmlns:svg="http://www.w3.org/2000/svg"><sodipodi:namedview
     id="namedview1"
     pagecolor="#505050"
     bordercolor="#eeeeee"
     borderopacity="1"
     inkscape:showpageshadow="0"
     inkscape:pageopacity="0"
     inkscape:pagecheckerboard="0"
     inkscape:deskcolor="#505050"
     inkscape:document-units="mm"><inkscape:page
       x="0"
       y="0"
       width="32.620289"
       height="28.079132"
       id="page2"
       margin="0"
       bleed="0" /></sodipodi:namedview><defs
     id="defs1" /><g
     inkscape:label="Capa 1"
     inkscape:groupmode="layer"
     id="layer1"
     transform="translate(-116.58695,-349.47089)"><path
       style="fill:#ffffff"
       d="m 117.20933,377.03733 c -0.4788,-0.4788 -0.51407,-0.95683 -0.53685,-7.27604 l -0.0244,-6.76357 0.603,-0.0278 c 3.40675,-0.15723 6.45451,-0.0904 6.61821,0.14507 0.10692,0.1538 0.19621,0.83316 0.19844,1.50969 0.004,1.15321 0.066,1.26177 0.99624,1.73775 0.78566,0.40202 1.16987,0.45506 1.84583,0.25482 0.94808,-0.28085 1.0855,-0.55428 1.16854,-2.32502 l 0.0572,-1.21906 2.92907,-0.1688 c 1.61099,-0.0928 3.79228,-0.16934 4.84731,-0.17 l 1.91823,-0.001 v 1.5958 c 0,1.28705 0.0896,1.62443 0.46302,1.74378 0.25466,0.0814 0.70986,0.26511 1.01157,0.40826 0.33779,0.16027 0.89689,0.17044 1.4552,0.0265 0.86795,-0.22382 0.91243,-0.29527 1.04174,-1.67333 0.0743,-0.79174 0.23387,-1.59438 0.35462,-1.78365 0.16509,-0.25876 1.06685,-0.32901 3.63524,-0.28318 l 3.41569,0.0609 v 6.71136 6.71135 l -0.64943,0.64943 -0.64944,0.64943 h -15.09327 c -14.57657,0 -15.11082,-0.0175 -15.60575,-0.51247 z m -0.46766,-18.60693 c 0.0851,-0.9113 0.22793,-1.84768 0.3174,-2.08083 0.30939,-0.80625 1.42186,-1.0247 5.23924,-1.02882 2.06683,-0.002 3.87693,-0.0915 4.02245,-0.19844 0.20207,-0.14845 0.58789,-5.04691 1.24116,-5.374 0.19049,-0.0111 0.58447,-0.0649 0.87551,-0.11937 0.29104,-0.0545 2.59505,-0.11934 5.12002,-0.14405 4.37451,-0.0428 4.61764,-0.0182 5.15937,0.5234 0.48228,0.48211 0.57325,0.896 0.5997,2.72826 0.0267,1.85231 0.10211,2.18778 0.52917,2.35549 0.27389,0.10756 2.25416,0.20394 4.40059,0.21417 4.83574,0.023 4.96094,0.097 4.96094,2.92901 v 1.85208 h -16.31014 -16.31013 z m 20.41907,-4.78637 c -0.0113,-2.20113 -0.18763,-2.33883 -4.63822,-2.28798 -2.08918,0.0239 -3.27485,-0.24579 -3.53689,0.99219 -0.34925,1.65 -0.44031,2.40669 0.0471,2.69459 0.27555,0.16275 2.01633,0.24842 4.29948,0.21158 l 3.83646,-0.0619 z"
       id="path2"
       sodipodi:nodetypes="cscsscsssccccssssssscccccsccsscssssssssscccsssssscs"
       inkscape:export-filename="COMPANY.svg"
       inkscape:export-xdpi="96"
       inkscape:export-ydpi="96" /></g></svg>
